<svg width="35" height="35" viewBox="0 0 35 35" fill="none" xmlns="http://www.w3.org/2000/svg">
<g clip-path="url(#clip0_2_2565)">
<path d="M6.7101 5C6.13381 5 5.66663 5.46718 5.66663 6.04348C5.66663 6.61978 6.13381 7.08696 6.7101 7.08696H8.56676C8.71869 7.08696 8.86676 7.13476 8.99001 7.2236C9.11326 7.31243 9.20543 7.4378 9.25346 7.58193L12.6938 17.9049C12.8466 18.3632 12.866 18.8567 12.7488 19.3254L12.4655 20.4606C12.0499 22.1233 13.3441 23.7826 15.0579 23.7826H27.5797C28.156 23.7826 28.6231 23.3154 28.6231 22.7391C28.6231 22.1628 28.156 21.6957 27.5797 21.6957H15.0579C14.6516 21.6957 14.3908 21.3623 14.4893 20.9681L14.703 20.1148C14.7391 19.9702 14.8226 19.8419 14.9401 19.7502C15.0576 19.6585 15.2024 19.6087 15.3514 19.6087H26.5362C26.9855 19.6089 27.3845 19.3216 27.5267 18.8954L30.3086 10.5476C30.534 9.8716 30.0306 9.17359 29.3181 9.17391H12.5063C12.3544 9.17391 12.2063 9.12611 12.083 9.03728C11.9598 8.94844 11.8676 8.82308 11.8196 8.67895L10.831 5.71332C10.6888 5.28712 10.2898 4.99977 9.84054 5H6.7101ZM14.0145 24.8261C12.8619 24.8261 11.9275 25.7604 11.9275 26.913C11.9275 28.0656 12.8619 29 14.0145 29C15.167 29 16.1014 28.0656 16.1014 26.913C16.1014 25.7604 15.167 24.8261 14.0145 24.8261ZM26.5362 24.8261C25.3836 24.8261 24.4492 25.7604 24.4492 26.913C24.4492 28.0656 25.3836 29 26.5362 29C27.6888 29 28.6231 28.0656 28.6231 26.913C28.6231 25.7604 27.6888 24.8261 26.5362 24.8261Z" fill="#FF5D8D"/>
</g>
<defs>
<clipPath id="clip0_2_2565">
<rect width="34.2857" height="34.2857" fill="white" transform="translate(0.666626)"/>
</clipPath>
</defs>
</svg>
