<svg width="26" height="25" viewBox="0 0 26 25" fill="none" xmlns="http://www.w3.org/2000/svg">
<path d="M12.882 12.6176C13.4442 12.6176 13.9001 12.1618 13.9001 11.5996C13.9001 11.0373 13.4442 10.5815 12.882 10.5815C12.3197 10.5815 11.8639 11.0373 11.8639 11.5996C11.8639 12.1618 12.3197 12.6176 12.882 12.6176Z" fill="#252762"/>
<path d="M8.80958 12.6176C9.37186 12.6176 9.82767 12.1618 9.82767 11.5996C9.82767 11.0373 9.37186 10.5815 8.80958 10.5815C8.24731 10.5815 7.7915 11.0373 7.7915 11.5996C7.7915 12.1618 8.24731 12.6176 8.80958 12.6176Z" fill="#252762"/>
<path d="M16.9542 12.6176C17.5165 12.6176 17.9723 12.1618 17.9723 11.5996C17.9723 11.0373 17.5165 10.5815 16.9542 10.5815C16.392 10.5815 15.9362 11.0373 15.9362 11.5996C15.9362 12.1618 16.392 12.6176 16.9542 12.6176Z" fill="#252762"/>
<path d="M3.76999 22.6663C3.98307 22.7542 4.21142 22.7992 4.44192 22.7987C4.66925 22.7998 4.89449 22.7553 5.10433 22.6679C5.31418 22.5805 5.50435 22.4518 5.66362 22.2896L8.20882 19.7444H17.9722C19.3223 19.7444 20.617 19.2081 21.5717 18.2535C22.5263 17.2988 23.0626 16.0041 23.0626 14.654V8.54554C23.0626 7.19548 22.5263 5.90072 21.5717 4.94608C20.617 3.99145 19.3223 3.45514 17.9722 3.45514H7.7914C6.44135 3.45514 5.14658 3.99145 4.19195 4.94608C3.23731 5.90072 2.701 7.19548 2.701 8.54554V21.0578C2.69778 21.4021 2.79793 21.7394 2.9885 22.0262C3.17908 22.3129 3.45131 22.5359 3.76999 22.6663ZM4.73716 8.54554C4.73716 7.73551 5.05895 6.95865 5.63173 6.38587C6.20451 5.81309 6.98137 5.4913 7.7914 5.4913H17.9722C18.7822 5.4913 19.5591 5.81309 20.1319 6.38587C20.7047 6.95865 21.0264 7.73551 21.0264 8.54554V14.654C21.0264 15.4641 20.7047 16.2409 20.1319 16.8137C19.5591 17.3865 18.7822 17.7083 17.9722 17.7083H7.7914C7.65742 17.7075 7.5246 17.7332 7.40056 17.7838C7.27652 17.8345 7.1637 17.9092 7.06857 18.0035L4.73716 20.3451V8.54554Z" fill="#252762"/>
</svg>
