<svg width="24" height="24" viewBox="0 0 24 24" fill="none" xmlns="http://www.w3.org/2000/svg">
<mask id="mask0_1324_183" style="mask-type:alpha" maskUnits="userSpaceOnUse" x="0" y="0" width="24" height="24">
<rect width="24" height="24" fill="#D9D9D9"/>
</mask>
<g mask="url(#mask0_1324_183)">
<path d="M6.35222 17.8907L4.45568 19.7445C4.18605 20.0081 3.87603 20.0677 3.52563 19.9235C3.17521 19.7792 3 19.5195 3 19.1444V5.67402C3 5.20624 3.16579 4.81029 3.49737 4.48617C3.82895 4.16206 4.23401 4 4.71256 4H19.2874C19.766 4 20.1711 4.16206 20.5026 4.48617C20.8342 4.81029 21 5.20624 21 5.67402V16.2166C21 16.6844 20.8342 17.0804 20.5026 17.4045C20.1711 17.7286 19.766 17.8907 19.2874 17.8907H6.35222ZM5.74738 16.5016H19.2874C19.3603 16.5016 19.4271 16.4719 19.4879 16.4126C19.5486 16.3532 19.579 16.2879 19.579 16.2166V5.67402C19.579 5.60277 19.5486 5.53746 19.4879 5.47809C19.4271 5.41873 19.3603 5.38905 19.2874 5.38905H4.71256C4.63968 5.38905 4.57286 5.41873 4.51212 5.47809C4.4514 5.53746 4.42103 5.60277 4.42103 5.67402V17.7838L5.74738 16.5016ZM7.26315 14.418H12.9474C13.149 14.418 13.3178 14.3515 13.4538 14.2185C13.5899 14.0856 13.6579 13.9205 13.6579 13.7235C13.6579 13.5264 13.5899 13.3614 13.4538 13.2284C13.3178 13.0954 13.149 13.029 12.9474 13.029H7.26315C7.06153 13.029 6.89271 13.0954 6.75668 13.2284C6.62065 13.3614 6.55264 13.5264 6.55264 13.7235C6.55264 13.9205 6.62065 14.0856 6.75668 14.2185C6.89271 14.3515 7.06153 14.418 7.26315 14.418ZM7.26315 11.6398H16.7369C16.9385 11.6398 17.1073 11.5734 17.2433 11.4404C17.3793 11.3074 17.4474 11.1424 17.4474 10.9453C17.4474 10.7482 17.3793 10.5832 17.2433 10.4503C17.1073 10.3173 16.9385 10.2508 16.7369 10.2508H7.26315C7.06153 10.2508 6.89271 10.3173 6.75668 10.4503C6.62065 10.5832 6.55264 10.7482 6.55264 10.9453C6.55264 11.1424 6.62065 11.3074 6.75668 11.4404C6.89271 11.5734 7.06153 11.6398 7.26315 11.6398ZM7.26315 8.8617H16.7369C16.9385 8.8617 17.1073 8.79522 17.2433 8.66225C17.3793 8.52929 17.4474 8.36427 17.4474 8.16719C17.4474 7.97011 17.3793 7.80509 17.2433 7.67212C17.1073 7.53916 16.9385 7.47267 16.7369 7.47267H7.26315C7.06153 7.47267 6.89271 7.53916 6.75668 7.67212C6.62065 7.80509 6.55264 7.97011 6.55264 8.16719C6.55264 8.36427 6.62065 8.52929 6.75668 8.66225C6.89271 8.79522 7.06153 8.8617 7.26315 8.8617Z" fill="black"/>
</g>
</svg>
