<svg width="26" height="25" viewBox="0 0 26 25" fill="none" xmlns="http://www.w3.org/2000/svg">
<path d="M12.8205 8.80008C12.0654 8.80008 11.3273 9.02399 10.6994 9.44349C10.0716 9.863 9.58226 10.4593 9.2933 11.1569C9.00434 11.8545 8.92873 12.6221 9.07605 13.3627C9.22336 14.1033 9.58697 14.7835 10.1209 15.3175C10.6548 15.8514 11.3351 16.215 12.0757 16.3623C12.8162 16.5096 13.5839 16.434 14.2815 16.1451C14.9791 15.8561 15.5754 15.3668 15.9949 14.7389C16.4144 14.1111 16.6383 13.373 16.6383 12.6179C16.6371 11.6057 16.2345 10.6353 15.5188 9.9196C14.803 9.20389 13.8327 8.80127 12.8205 8.80008ZM12.8205 14.9086C12.3674 14.9086 11.9245 14.7742 11.5478 14.5225C11.1711 14.2708 10.8775 13.913 10.7042 13.4945C10.5308 13.0759 10.4854 12.6153 10.5738 12.171C10.6622 11.7266 10.8804 11.3185 11.2007 10.9981C11.5211 10.6778 11.9292 10.4596 12.3736 10.3712C12.8179 10.2828 13.2785 10.3282 13.6971 10.5016C14.1157 10.6749 14.4734 10.9685 14.7251 11.3452C14.9768 11.7219 15.1112 12.1648 15.1112 12.6179C15.1105 13.2252 14.8689 13.8075 14.4395 14.2369C14.0101 14.6663 13.4278 14.9079 12.8205 14.9086Z" fill="#FF5B5B"/>
<path d="M5.39381 7.87055C5.01835 7.7295 4.60275 7.74002 4.23491 7.89991C3.86707 8.05979 3.57585 8.35649 3.42286 8.72725C3.26987 9.09801 3.2671 9.51374 3.41514 9.8865C3.56318 10.2593 3.85042 10.5598 4.2161 10.7246C4.58811 10.8819 4.90551 11.1454 5.12866 11.4821C5.35182 11.8188 5.47083 12.2137 5.47083 12.6176C5.47083 13.0216 5.35182 13.4165 5.12866 13.7532C4.90551 14.0899 4.58811 14.3534 4.2161 14.5107C3.85033 14.6755 3.56302 14.9761 3.41496 15.3489C3.2669 15.7218 3.2697 16.1376 3.42278 16.5084C3.57585 16.8792 3.86719 17.1759 4.23514 17.3357C4.60309 17.4956 5.01879 17.506 5.39427 17.3647C5.76896 17.2121 6.18035 17.1735 6.5769 17.2537C6.97345 17.3338 7.33753 17.5292 7.62354 17.8154C7.90954 18.1015 8.10476 18.4657 8.18472 18.8623C8.26468 19.2589 8.22585 19.6702 8.07307 20.0448C7.92744 20.4213 7.93648 20.8401 8.09822 21.2099C8.25996 21.5797 8.5613 21.8707 8.93658 22.0193C9.12452 22.0971 9.32593 22.1371 9.52933 22.1371C9.82648 22.1392 10.1176 22.0536 10.3663 21.8909C10.6149 21.7282 10.81 21.4957 10.9271 21.2225C11.0845 20.8505 11.3479 20.5331 11.6846 20.31C12.0213 20.0868 12.4162 19.9678 12.8202 19.9678C13.2241 19.9678 13.619 20.0868 13.9557 20.31C14.2924 20.5331 14.5559 20.8505 14.7132 21.2225C14.878 21.5883 15.1786 21.8756 15.5514 22.0237C15.9243 22.1717 16.3401 22.1689 16.7109 22.0159C17.0817 21.8628 17.3784 21.5715 17.5383 21.2035C17.6981 20.8356 17.7085 20.4199 17.5673 20.0444C17.4147 19.6697 17.376 19.2583 17.4562 18.8617C17.5363 18.4652 17.7317 18.1011 18.0179 17.8151C18.304 17.5291 18.6682 17.3339 19.0648 17.2539C19.4614 17.174 19.8727 17.2128 20.2474 17.3656C20.6215 17.5108 21.0377 17.503 21.4061 17.3439C21.7745 17.1848 22.0655 16.8871 22.2163 16.5151L21.5161 16.2109L20.8212 15.9507C20.1686 15.6841 19.4518 15.6164 18.7608 15.7561C18.0698 15.8958 17.4356 16.2367 16.9378 16.7359C16.4405 17.2373 16.0987 17.8718 15.9539 18.563C15.809 19.2543 15.8671 19.9726 16.1213 20.6316C15.8489 19.9812 15.3902 19.4261 14.8028 19.0362C14.2154 18.6462 13.5257 18.4389 12.8207 18.4404C12.1141 18.4426 11.4233 18.6495 10.8319 19.0361C10.2404 19.4227 9.77374 19.9725 9.48825 20.6188C9.75469 19.9662 9.8223 19.2494 9.68261 18.5584C9.54291 17.8675 9.20213 17.2333 8.70308 16.7354C8.20165 16.2381 7.56709 15.8964 6.87589 15.7515C6.18468 15.6067 5.46633 15.6648 4.8074 15.9189C5.45768 15.6464 6.01274 15.1875 6.40261 14.6001C6.79247 14.0126 6.99969 13.3229 6.99813 12.6178C6.99594 11.9113 6.78901 11.2205 6.40239 10.629C6.01577 10.0376 5.46603 9.57092 4.81969 9.28543C5.47229 9.55203 6.18914 9.61973 6.88011 9.48003C7.57108 9.34032 8.20532 8.99945 8.70308 8.50026C9.20046 7.99887 9.54219 7.36432 9.68708 6.67309C9.83196 5.98187 9.77381 5.2635 9.51963 4.60458C9.79209 5.25486 10.251 5.80992 10.8384 6.19979C11.4259 6.58966 12.1156 6.79687 12.8207 6.79531C13.5272 6.79312 14.218 6.58619 14.8095 6.19957C15.4009 5.81295 15.8676 5.26321 16.1531 4.61687C15.8866 5.2695 15.819 5.9863 15.9587 6.67724C16.0984 7.36817 16.4392 8.00241 16.9382 8.50026C17.4398 8.99739 18.0743 9.33894 18.7655 9.48381C19.4567 9.62868 20.175 9.57069 20.8339 9.31681C20.1868 9.58869 19.634 10.045 19.2444 10.6289C18.8548 11.2129 18.6457 11.8985 18.6432 12.6004C18.6407 13.3024 18.8448 13.9895 19.2301 14.5763C19.6154 15.163 20.1649 15.6233 20.8101 15.8998C20.8122 15.9061 20.8122 15.9129 20.8101 15.9192L21.5159 16.2105L22.2175 16.5113L22.2216 16.5016C22.3775 16.1318 22.3813 15.7155 22.2322 15.343C22.0831 14.9704 21.7932 14.6716 21.4252 14.5115C21.0532 14.3541 20.7358 14.0907 20.5127 13.754C20.2895 13.4173 20.1705 13.0223 20.1705 12.6184C20.1705 12.2145 20.2895 11.8195 20.5127 11.4828C20.7358 11.1462 21.0532 10.8827 21.4252 10.7254C21.791 10.5606 22.0783 10.26 22.2264 9.88714C22.3744 9.51429 22.3716 9.09848 22.2185 8.72767C22.0655 8.35685 21.7741 8.06015 21.4062 7.90032C21.0382 7.7405 20.6225 7.73009 20.247 7.87132C19.8724 8.02391 19.461 8.06255 19.0644 7.9824C18.6679 7.90224 18.3038 7.70685 18.0178 7.42071C17.7318 7.13456 17.5366 6.77039 17.4566 6.3738C17.3766 5.97721 17.4155 5.56584 17.5682 5.19122C17.7094 4.81576 17.699 4.40009 17.5391 4.03219C17.3793 3.66428 17.0826 3.37299 16.7118 3.21995C16.341 3.06692 15.9252 3.06413 15.5524 3.21219C15.1796 3.36025 14.879 3.64754 14.7143 4.01328C14.5569 4.38529 14.2935 4.70269 13.9568 4.92584C13.6201 5.149 13.2251 5.26801 12.8212 5.26801C12.4173 5.26801 12.0223 5.149 11.6857 4.92584C11.349 4.70269 11.0855 4.38529 10.9282 4.01328C10.7634 3.64751 10.4628 3.3602 10.09 3.21214C9.71711 3.06408 9.3013 3.06688 8.93049 3.21996C8.55967 3.37303 8.26297 3.66437 8.10314 4.03232C7.94332 4.40027 7.93291 4.81597 8.07414 5.19145C8.22673 5.56614 8.26537 5.97753 8.18522 6.37408C8.10506 6.77063 7.90967 7.13471 7.62353 7.42072C7.33738 7.70672 6.97321 7.90194 6.57662 7.9819C6.18003 8.06186 5.76866 8.02303 5.39404 7.87025L5.39381 7.87055Z" fill="#FF5B5B"/>
</svg>
