<svg width="24" height="24" viewBox="0 0 24 24" fill="none" xmlns="http://www.w3.org/2000/svg">
<mask id="mask0_1324_171" style="mask-type:alpha" maskUnits="userSpaceOnUse" x="0" y="0" width="24" height="24">
<rect width="24" height="24" fill="#D9D9D9"/>
</mask>
<g mask="url(#mask0_1324_171)">
<path d="M5.99997 18.9424H9.34615V13.9039C9.34615 13.6478 9.43277 13.4332 9.606 13.2599C9.77923 13.0867 9.9939 13.0001 10.25 13.0001H13.75C14.0061 13.0001 14.2207 13.0867 14.3939 13.2599C14.5672 13.4332 14.6538 13.6478 14.6538 13.9039V18.9424H18V10.0962C18 10.045 17.9888 9.99849 17.9663 9.95682C17.9439 9.91516 17.9134 9.8783 17.875 9.84625L12.1827 5.5674C12.1314 5.52253 12.0705 5.5001 12 5.5001C11.9295 5.5001 11.8686 5.52253 11.8173 5.5674L6.12497 9.84625C6.08652 9.8783 6.05607 9.91516 6.03362 9.95682C6.01119 9.99849 5.99997 10.045 5.99997 10.0962V18.9424ZM4.5 18.9424V10.0962C4.5 9.81003 4.56402 9.53888 4.69207 9.2828C4.82012 9.02671 4.99712 8.81582 5.22307 8.65012L10.9154 4.36167C11.2313 4.12064 11.5923 4.00012 11.9984 4.00012C12.4046 4.00012 12.7666 4.12064 13.0846 4.36167L18.7769 8.65012C19.0028 8.81582 19.1798 9.02671 19.3079 9.2828C19.4359 9.53888 19.5 9.81003 19.5 10.0962V18.9424C19.5 19.3514 19.3522 19.7036 19.0567 19.9991C18.7612 20.2946 18.4089 20.4424 18 20.4424H14.0577C13.8016 20.4424 13.5869 20.3557 13.4137 20.1825C13.2404 20.0093 13.1538 19.7946 13.1538 19.5385V14.5H10.8461V19.5385C10.8461 19.7946 10.7595 20.0093 10.5863 20.1825C10.413 20.3557 10.1984 20.4424 9.94227 20.4424H5.99997C5.59101 20.4424 5.23877 20.2946 4.94327 19.9991C4.64776 19.7036 4.5 19.3514 4.5 18.9424Z" fill="black"/>
</g>
</svg>
