<svg width="26" height="25" viewBox="0 0 26 25" fill="none" xmlns="http://www.w3.org/2000/svg">
<path d="M4.7986 20.7625H10.9071C10.9071 21.3025 11.1216 21.8204 11.5035 22.2023C11.8853 22.5841 12.4032 22.7987 12.9432 22.7987C13.4833 22.7987 14.0012 22.5841 14.383 22.2023C14.7649 21.8204 14.9794 21.3025 14.9794 20.7625H21.0879C21.3579 20.7625 21.6168 20.6552 21.8078 20.4643C21.9987 20.2734 22.106 20.0144 22.106 19.7444C22.106 19.4744 21.9987 19.2155 21.8078 19.0245C21.6168 18.8336 21.3579 18.7263 21.0879 18.7263V11.5998C21.0879 9.43969 20.2298 7.36807 18.7024 5.84065C17.175 4.31323 15.1033 3.45514 12.9432 3.45514C10.7831 3.45514 8.71153 4.31323 7.18411 5.84065C5.65669 7.36807 4.7986 9.43969 4.7986 11.5998V18.7263C4.52859 18.7263 4.26963 18.8336 4.07871 19.0245C3.88778 19.2155 3.78052 19.4744 3.78052 19.7444C3.78052 20.0144 3.88778 20.2734 4.07871 20.4643C4.26963 20.6552 4.52859 20.7625 4.7986 20.7625V20.7625ZM6.83476 11.5998C6.83476 9.97971 7.47833 8.426 8.62389 7.28043C9.76945 6.13487 11.3232 5.4913 12.9432 5.4913C14.5633 5.4913 16.117 6.13487 17.2626 7.28043C18.4082 8.426 19.0517 9.97971 19.0517 11.5998V18.7263H6.83476V11.5998Z" fill="#252762"/>
</svg>
