<svg width="24" height="24" viewBox="0 0 24 24" fill="none" xmlns="http://www.w3.org/2000/svg">
<mask id="mask0_986_177" style="mask-type:alpha" maskUnits="userSpaceOnUse" x="0" y="0" width="24" height="24">
<rect width="24" height="24" fill="#D9D9D9"/>
</mask>
<g mask="url(#mask0_986_177)">
<path d="M4.50005 17.6923V7.60002L2.95005 4.2212C2.86545 4.0353 2.86032 3.84363 2.93467 3.6462C3.00904 3.44877 3.13917 3.30774 3.32505 3.22312C3.51095 3.13852 3.70262 3.13083 3.90005 3.20005C4.09747 3.26928 4.23848 3.39685 4.3231 3.58275L6.14232 7.55002H17.8577L19.677 3.58275C19.7616 3.39685 19.9026 3.26673 20.1 3.19238C20.2974 3.11801 20.4891 3.12826 20.675 3.22312C20.8609 3.30774 20.991 3.44877 21.0654 3.6462C21.1397 3.84363 21.1346 4.0353 21.05 4.2212L19.5 7.60002V17.6923C19.5 18.191 19.3234 18.617 18.9702 18.9701C18.617 19.3234 18.191 19.5 17.6923 19.5H6.30775C5.80903 19.5 5.38307 19.3234 5.02987 18.9701C4.67666 18.617 4.50005 18.191 4.50005 17.6923ZM10 12.75H14C14.2128 12.75 14.391 12.6782 14.5346 12.5346C14.6782 12.391 14.75 12.2128 14.75 12C14.75 11.7872 14.6782 11.609 14.5346 11.4654C14.391 11.3218 14.2128 11.25 14 11.25H10C9.78721 11.25 9.60901 11.3218 9.46542 11.4654C9.32184 11.609 9.25005 11.7872 9.25005 12C9.25005 12.2128 9.32184 12.391 9.46542 12.5346C9.60901 12.6782 9.78721 12.75 10 12.75ZM6.30775 18H17.6923C17.782 18 17.8558 17.9711 17.9135 17.9134C17.9712 17.8557 18 17.782 18 17.6923V9.05H6.00002V17.6923C6.00002 17.782 6.02887 17.8557 6.08657 17.9134C6.14427 17.9711 6.218 18 6.30775 18Z" fill="black"/>
</g>
</svg>
