<svg width="35" height="35" viewBox="0 0 35 35" fill="none" xmlns="http://www.w3.org/2000/svg">
<g clip-path="url(#clip0_2_2537)">
<path d="M7.17674 11.9818H7.53472C8.91293 11.9818 10.0406 13.1095 10.0406 14.4877V27.0169C10.0406 28.3951 8.91293 29.5227 7.53472 29.5227H7.17674C5.79853 29.5227 4.6709 28.3951 4.6709 27.0169V14.4877C4.6709 13.1095 5.79853 11.9818 7.17674 11.9818ZM17.2001 4.46432C18.5783 4.46432 19.7059 5.59195 19.7059 6.97017V27.0169C19.7059 28.3951 18.5783 29.5227 17.2001 29.5227C15.8219 29.5227 14.6943 28.3951 14.6943 27.0169V6.97017C14.6943 5.59195 15.8219 4.46432 17.2001 4.46432ZM27.2235 18.7834C28.6017 18.7834 29.7293 19.911 29.7293 21.2893V27.0169C29.7293 28.3951 28.6017 29.5227 27.2235 29.5227C25.8453 29.5227 24.7176 28.3951 24.7176 27.0169V21.2893C24.7176 19.911 25.8453 18.7834 27.2235 18.7834Z" fill="#FA18FF"/>
</g>
<defs>
<clipPath id="clip0_2_2537">
<rect width="34.29" height="34.29" fill="white"/>
</clipPath>
</defs>
</svg>
