<svg width="35" height="35" viewBox="0 0 35 35" fill="none" xmlns="http://www.w3.org/2000/svg">
<g clip-path="url(#clip0_2_2551)">
<path d="M17.3333 17C20.6483 17 23.3333 14.315 23.3333 11C23.3333 7.685 20.6483 5 17.3333 5C14.0183 5 11.3333 7.685 11.3333 11C11.3333 14.315 14.0183 17 17.3333 17ZM17.3333 20C13.3283 20 5.33325 22.01 5.33325 26V27.5C5.33325 28.325 6.00825 29 6.83325 29H27.8333C28.6583 29 29.3333 28.325 29.3333 27.5V26C29.3333 22.01 21.3383 20 17.3333 20Z" fill="#18CE98"/>
</g>
<defs>
<clipPath id="clip0_2_2551">
<rect width="34.2857" height="34.2857" fill="white" transform="translate(0.333374)"/>
</clipPath>
</defs>
</svg>
