<svg width="35" height="35" viewBox="0 0 35 35" fill="none" xmlns="http://www.w3.org/2000/svg">
<path d="M6.7208 29.1924L9.71745 28.1935C9.89018 28.1376 10.0728 28.1189 10.2533 28.1388C10.4337 28.1587 10.6079 28.2167 10.7643 28.3089C13.4686 29.8546 16.642 30.366 19.6949 29.7484C22.7478 29.1307 25.4728 27.4259 27.3636 24.9506C29.2544 22.4753 30.1824 19.3979 29.9753 16.29C29.7682 13.1821 28.44 10.255 26.2375 8.05251C24.035 5.85001 21.1079 4.52184 18 4.31473C14.8921 4.10762 11.8147 5.03565 9.3394 6.92642C6.86413 8.8172 5.1593 11.5422 4.54164 14.5951C3.92397 17.6481 4.43546 20.8214 5.98107 23.5257C6.07329 23.6821 6.13128 23.8563 6.15118 24.0367C6.17108 24.2172 6.15246 24.3998 6.09653 24.5726L5.09765 27.5692C5.02217 27.7953 5.01117 28.0379 5.06588 28.2699C5.12059 28.5019 5.23884 28.7141 5.40739 28.8826C5.57593 29.0512 5.78809 29.1694 6.02008 29.2241C6.25207 29.2788 6.49471 29.2678 6.7208 29.1924ZM17.1172 25.3524C16.8635 25.3524 16.6154 25.2772 16.4045 25.1362C16.1935 24.9953 16.0291 24.7949 15.932 24.5605C15.8349 24.3261 15.8094 24.0681 15.8589 23.8192C15.9084 23.5704 16.0306 23.3418 16.2101 23.1624C16.3895 22.9829 16.6181 22.8608 16.8669 22.8113C17.1158 22.7618 17.3737 22.7872 17.6082 22.8843C17.8426 22.9814 18.043 23.1458 18.1839 23.3568C18.3249 23.5677 18.4001 23.8158 18.4001 24.0695C18.4001 24.4098 18.265 24.7361 18.0244 24.9767C17.7838 25.2173 17.4575 25.3524 17.1172 25.3524ZM14.0254 10.1203C14.5397 9.68955 15.1385 9.37112 15.7832 9.18548C16.4279 8.99984 17.1043 8.95109 17.7689 9.04237C18.4336 9.13365 19.0718 9.36294 19.6426 9.71551C20.2134 10.0681 20.7041 10.5361 21.0833 11.0896C21.4625 11.6431 21.7217 12.2697 21.8443 12.9293C21.9669 13.5889 21.9502 14.2669 21.7953 14.9197C21.6403 15.5724 21.3506 16.1856 20.9446 16.7197C20.5387 17.2538 20.0255 17.6972 19.438 18.0212C19.0442 18.214 18.7099 18.51 18.4708 18.8776C18.2316 19.2452 18.0966 19.6708 18.0799 20.109C18.0819 20.3701 17.9829 20.6218 17.8035 20.8115C17.6242 21.0012 17.3785 21.1143 17.1177 21.127C16.9944 21.1332 16.8711 21.1144 16.7553 21.0717C16.6394 21.029 16.5334 20.9634 16.4435 20.8787C16.3537 20.7941 16.2818 20.6921 16.2323 20.579C16.1829 20.4659 16.1567 20.344 16.1555 20.2205V20.109C16.1691 19.326 16.3952 18.5613 16.8096 17.8968C17.224 17.2322 17.8112 16.6928 18.5084 16.3361C18.9546 16.0907 19.3279 15.7316 19.5904 15.2953C19.853 14.859 19.9955 14.361 20.0034 13.8519C20.0114 13.3427 19.8845 12.8406 19.6357 12.3963C19.3868 11.952 19.0249 11.5815 18.5866 11.3223C18.1483 11.0631 17.6493 10.9244 17.1401 10.9204C16.6309 10.9163 16.1297 11.0471 15.6874 11.2993C15.245 11.5515 14.8773 11.9163 14.6214 12.3566C14.3656 12.7968 14.2308 13.2969 14.2306 13.8061C14.2306 14.0613 14.1293 14.3061 13.9488 14.4865C13.7684 14.667 13.5236 14.7683 13.2685 14.7683C13.0133 14.7683 12.7685 14.667 12.5881 14.4865C12.4076 14.3061 12.3063 14.0613 12.3063 13.8061C12.3057 13.1034 12.4593 12.4092 12.7564 11.7723C13.0534 11.1354 13.4867 10.5715 14.0254 10.1203Z" fill="#FF6B00"/>
</svg>
